<mxfile host="Electron" modified="2024-02-29T12:03:21.367Z" agent="Mozilla/5.0 (Windows NT 10.0; Win64; x64) AppleWebKit/537.36 (KHTML, like Gecko) draw.io/23.1.5 Chrome/120.0.6099.109 Electron/28.1.0 Safari/537.36" etag="hNxzW0KSQKwGtE5V9IO0" version="23.1.5" type="device">
  <diagram id="uelb2M4fBFRRae9yBYAr" name="example-ingot2moter">
    <mxGraphModel dx="1528" dy="1656" grid="1" gridSize="10" guides="1" tooltips="1" connect="1" arrows="1" fold="1" page="1" pageScale="1" pageWidth="827" pageHeight="1169" math="0" shadow="0">
      <root>
        <mxCell id="0" />
        <mxCell id="1" parent="0" />
        <mxCell id="VrrK6uy43NKe8OXlqI86-352" style="edgeStyle=orthogonalEdgeStyle;rounded=0;orthogonalLoop=1;jettySize=auto;html=1;" parent="1" source="IXcQTllMr5og1gS8YRvR-9" target="VrrK6uy43NKe8OXlqI86-349" edge="1">
          <mxGeometry relative="1" as="geometry" />
        </mxCell>
        <mxCell id="VrrK6uy43NKe8OXlqI86-102" style="edgeStyle=orthogonalEdgeStyle;rounded=0;orthogonalLoop=1;jettySize=auto;html=1;" parent="1" source="VrrK6uy43NKe8OXlqI86-1" target="VrrK6uy43NKe8OXlqI86-94" edge="1">
          <mxGeometry relative="1" as="geometry" />
        </mxCell>
        <mxCell id="VrrK6uy43NKe8OXlqI86-1" value="Constructor&lt;br&gt;1" style="rounded=0;whiteSpace=wrap;html=1;" parent="1" vertex="1">
          <mxGeometry x="1100" y="560" width="100" height="80" as="geometry" />
        </mxCell>
        <mxCell id="VrrK6uy43NKe8OXlqI86-3" style="edgeStyle=orthogonalEdgeStyle;rounded=0;orthogonalLoop=1;jettySize=auto;html=1;" parent="1" source="VrrK6uy43NKe8OXlqI86-4" target="VrrK6uy43NKe8OXlqI86-5" edge="1">
          <mxGeometry relative="1" as="geometry" />
        </mxCell>
        <mxCell id="VrrK6uy43NKe8OXlqI86-10" style="edgeStyle=orthogonalEdgeStyle;rounded=0;orthogonalLoop=1;jettySize=auto;html=1;entryX=0;entryY=0.5;entryDx=0;entryDy=0;" parent="1" source="VrrK6uy43NKe8OXlqI86-4" target="VrrK6uy43NKe8OXlqI86-1" edge="1">
          <mxGeometry relative="1" as="geometry">
            <Array as="points">
              <mxPoint x="1060" y="600" />
            </Array>
          </mxGeometry>
        </mxCell>
        <mxCell id="VrrK6uy43NKe8OXlqI86-11" style="edgeStyle=orthogonalEdgeStyle;rounded=0;orthogonalLoop=1;jettySize=auto;html=1;entryX=0;entryY=0.5;entryDx=0;entryDy=0;" parent="1" source="VrrK6uy43NKe8OXlqI86-4" target="VrrK6uy43NKe8OXlqI86-8" edge="1">
          <mxGeometry relative="1" as="geometry">
            <Array as="points">
              <mxPoint x="1060" y="760" />
            </Array>
          </mxGeometry>
        </mxCell>
        <mxCell id="VrrK6uy43NKe8OXlqI86-4" value="S" style="rounded=0;whiteSpace=wrap;html=1;" parent="1" vertex="1">
          <mxGeometry x="1040" y="660" width="40" height="40" as="geometry" />
        </mxCell>
        <mxCell id="VrrK6uy43NKe8OXlqI86-101" style="edgeStyle=orthogonalEdgeStyle;rounded=0;orthogonalLoop=1;jettySize=auto;html=1;exitX=1;exitY=0.5;exitDx=0;exitDy=0;" parent="1" source="VrrK6uy43NKe8OXlqI86-5" target="VrrK6uy43NKe8OXlqI86-94" edge="1">
          <mxGeometry relative="1" as="geometry" />
        </mxCell>
        <mxCell id="VrrK6uy43NKe8OXlqI86-5" value="Constructor&lt;br&gt;2" style="rounded=0;whiteSpace=wrap;html=1;" parent="1" vertex="1">
          <mxGeometry x="1100" y="640" width="100" height="80" as="geometry" />
        </mxCell>
        <mxCell id="VrrK6uy43NKe8OXlqI86-100" style="edgeStyle=orthogonalEdgeStyle;rounded=0;orthogonalLoop=1;jettySize=auto;html=1;" parent="1" source="VrrK6uy43NKe8OXlqI86-8" target="VrrK6uy43NKe8OXlqI86-94" edge="1">
          <mxGeometry relative="1" as="geometry" />
        </mxCell>
        <mxCell id="VrrK6uy43NKe8OXlqI86-8" value="Constructor&lt;br&gt;3" style="rounded=0;whiteSpace=wrap;html=1;" parent="1" vertex="1">
          <mxGeometry x="1100" y="720" width="100" height="80" as="geometry" />
        </mxCell>
        <mxCell id="VrrK6uy43NKe8OXlqI86-293" style="edgeStyle=orthogonalEdgeStyle;rounded=0;orthogonalLoop=1;jettySize=auto;html=1;" parent="1" source="VrrK6uy43NKe8OXlqI86-94" target="VrrK6uy43NKe8OXlqI86-287" edge="1">
          <mxGeometry relative="1" as="geometry">
            <Array as="points">
              <mxPoint x="1281" y="680" />
            </Array>
          </mxGeometry>
        </mxCell>
        <mxCell id="VrrK6uy43NKe8OXlqI86-94" value="M" style="rounded=0;whiteSpace=wrap;html=1;" parent="1" vertex="1">
          <mxGeometry x="1221" y="660" width="40" height="40" as="geometry" />
        </mxCell>
        <mxCell id="VrrK6uy43NKe8OXlqI86-231" style="edgeStyle=orthogonalEdgeStyle;rounded=0;orthogonalLoop=1;jettySize=auto;html=1;" parent="1" source="VrrK6uy43NKe8OXlqI86-232" target="VrrK6uy43NKe8OXlqI86-241" edge="1">
          <mxGeometry relative="1" as="geometry" />
        </mxCell>
        <mxCell id="VrrK6uy43NKe8OXlqI86-232" value="Constructor&lt;br&gt;1" style="rounded=0;whiteSpace=wrap;html=1;" parent="1" vertex="1">
          <mxGeometry x="1100" y="1400" width="100" height="80" as="geometry" />
        </mxCell>
        <mxCell id="VrrK6uy43NKe8OXlqI86-233" style="edgeStyle=orthogonalEdgeStyle;rounded=0;orthogonalLoop=1;jettySize=auto;html=1;" parent="1" source="VrrK6uy43NKe8OXlqI86-236" target="VrrK6uy43NKe8OXlqI86-238" edge="1">
          <mxGeometry relative="1" as="geometry" />
        </mxCell>
        <mxCell id="VrrK6uy43NKe8OXlqI86-234" style="edgeStyle=orthogonalEdgeStyle;rounded=0;orthogonalLoop=1;jettySize=auto;html=1;entryX=0;entryY=0.5;entryDx=0;entryDy=0;" parent="1" source="VrrK6uy43NKe8OXlqI86-236" target="VrrK6uy43NKe8OXlqI86-232" edge="1">
          <mxGeometry relative="1" as="geometry">
            <Array as="points">
              <mxPoint x="1060" y="1440" />
            </Array>
          </mxGeometry>
        </mxCell>
        <mxCell id="VrrK6uy43NKe8OXlqI86-235" style="edgeStyle=orthogonalEdgeStyle;rounded=0;orthogonalLoop=1;jettySize=auto;html=1;entryX=0;entryY=0.5;entryDx=0;entryDy=0;" parent="1" source="VrrK6uy43NKe8OXlqI86-236" target="VrrK6uy43NKe8OXlqI86-240" edge="1">
          <mxGeometry relative="1" as="geometry">
            <Array as="points">
              <mxPoint x="1060" y="1600" />
            </Array>
          </mxGeometry>
        </mxCell>
        <mxCell id="VrrK6uy43NKe8OXlqI86-236" value="S" style="rounded=0;whiteSpace=wrap;html=1;" parent="1" vertex="1">
          <mxGeometry x="1040" y="1500" width="40" height="40" as="geometry" />
        </mxCell>
        <mxCell id="VrrK6uy43NKe8OXlqI86-237" style="edgeStyle=orthogonalEdgeStyle;rounded=0;orthogonalLoop=1;jettySize=auto;html=1;exitX=1;exitY=0.5;exitDx=0;exitDy=0;" parent="1" source="VrrK6uy43NKe8OXlqI86-238" target="VrrK6uy43NKe8OXlqI86-241" edge="1">
          <mxGeometry relative="1" as="geometry" />
        </mxCell>
        <mxCell id="VrrK6uy43NKe8OXlqI86-238" value="Constructor&lt;br&gt;2" style="rounded=0;whiteSpace=wrap;html=1;" parent="1" vertex="1">
          <mxGeometry x="1100" y="1480" width="100" height="80" as="geometry" />
        </mxCell>
        <mxCell id="VrrK6uy43NKe8OXlqI86-239" style="edgeStyle=orthogonalEdgeStyle;rounded=0;orthogonalLoop=1;jettySize=auto;html=1;" parent="1" source="VrrK6uy43NKe8OXlqI86-240" target="VrrK6uy43NKe8OXlqI86-241" edge="1">
          <mxGeometry relative="1" as="geometry" />
        </mxCell>
        <mxCell id="VrrK6uy43NKe8OXlqI86-240" value="Constructor&lt;br&gt;3" style="rounded=0;whiteSpace=wrap;html=1;" parent="1" vertex="1">
          <mxGeometry x="1100" y="1560" width="100" height="80" as="geometry" />
        </mxCell>
        <mxCell id="VrrK6uy43NKe8OXlqI86-241" value="M" style="rounded=0;whiteSpace=wrap;html=1;" parent="1" vertex="1">
          <mxGeometry x="1221" y="1500" width="40" height="40" as="geometry" />
        </mxCell>
        <mxCell id="VrrK6uy43NKe8OXlqI86-242" style="edgeStyle=orthogonalEdgeStyle;rounded=0;orthogonalLoop=1;jettySize=auto;html=1;" parent="1" source="VrrK6uy43NKe8OXlqI86-243" target="VrrK6uy43NKe8OXlqI86-252" edge="1">
          <mxGeometry relative="1" as="geometry" />
        </mxCell>
        <mxCell id="VrrK6uy43NKe8OXlqI86-243" value="Constructor&lt;br&gt;1" style="rounded=0;whiteSpace=wrap;html=1;" parent="1" vertex="1">
          <mxGeometry x="1100" y="840" width="100" height="80" as="geometry" />
        </mxCell>
        <mxCell id="VrrK6uy43NKe8OXlqI86-244" style="edgeStyle=orthogonalEdgeStyle;rounded=0;orthogonalLoop=1;jettySize=auto;html=1;" parent="1" source="VrrK6uy43NKe8OXlqI86-247" target="VrrK6uy43NKe8OXlqI86-249" edge="1">
          <mxGeometry relative="1" as="geometry" />
        </mxCell>
        <mxCell id="VrrK6uy43NKe8OXlqI86-245" style="edgeStyle=orthogonalEdgeStyle;rounded=0;orthogonalLoop=1;jettySize=auto;html=1;entryX=0;entryY=0.5;entryDx=0;entryDy=0;" parent="1" source="VrrK6uy43NKe8OXlqI86-247" target="VrrK6uy43NKe8OXlqI86-243" edge="1">
          <mxGeometry relative="1" as="geometry">
            <Array as="points">
              <mxPoint x="1060" y="880" />
            </Array>
          </mxGeometry>
        </mxCell>
        <mxCell id="VrrK6uy43NKe8OXlqI86-246" style="edgeStyle=orthogonalEdgeStyle;rounded=0;orthogonalLoop=1;jettySize=auto;html=1;entryX=0;entryY=0.5;entryDx=0;entryDy=0;" parent="1" source="VrrK6uy43NKe8OXlqI86-247" target="VrrK6uy43NKe8OXlqI86-251" edge="1">
          <mxGeometry relative="1" as="geometry">
            <Array as="points">
              <mxPoint x="1060" y="1040" />
            </Array>
          </mxGeometry>
        </mxCell>
        <mxCell id="VrrK6uy43NKe8OXlqI86-247" value="S" style="rounded=0;whiteSpace=wrap;html=1;" parent="1" vertex="1">
          <mxGeometry x="1040" y="940" width="40" height="40" as="geometry" />
        </mxCell>
        <mxCell id="VrrK6uy43NKe8OXlqI86-248" style="edgeStyle=orthogonalEdgeStyle;rounded=0;orthogonalLoop=1;jettySize=auto;html=1;exitX=1;exitY=0.5;exitDx=0;exitDy=0;" parent="1" source="VrrK6uy43NKe8OXlqI86-249" target="VrrK6uy43NKe8OXlqI86-252" edge="1">
          <mxGeometry relative="1" as="geometry" />
        </mxCell>
        <mxCell id="VrrK6uy43NKe8OXlqI86-249" value="Constructor&lt;br&gt;2" style="rounded=0;whiteSpace=wrap;html=1;" parent="1" vertex="1">
          <mxGeometry x="1100" y="920" width="100" height="80" as="geometry" />
        </mxCell>
        <mxCell id="VrrK6uy43NKe8OXlqI86-250" style="edgeStyle=orthogonalEdgeStyle;rounded=0;orthogonalLoop=1;jettySize=auto;html=1;" parent="1" source="VrrK6uy43NKe8OXlqI86-251" target="VrrK6uy43NKe8OXlqI86-252" edge="1">
          <mxGeometry relative="1" as="geometry" />
        </mxCell>
        <mxCell id="VrrK6uy43NKe8OXlqI86-251" value="Constructor&lt;br&gt;3" style="rounded=0;whiteSpace=wrap;html=1;" parent="1" vertex="1">
          <mxGeometry x="1100" y="1000" width="100" height="80" as="geometry" />
        </mxCell>
        <mxCell id="VrrK6uy43NKe8OXlqI86-252" value="M" style="rounded=0;whiteSpace=wrap;html=1;" parent="1" vertex="1">
          <mxGeometry x="1221" y="940" width="40" height="40" as="geometry" />
        </mxCell>
        <mxCell id="VrrK6uy43NKe8OXlqI86-253" style="edgeStyle=orthogonalEdgeStyle;rounded=0;orthogonalLoop=1;jettySize=auto;html=1;" parent="1" source="VrrK6uy43NKe8OXlqI86-254" target="VrrK6uy43NKe8OXlqI86-263" edge="1">
          <mxGeometry relative="1" as="geometry" />
        </mxCell>
        <mxCell id="VrrK6uy43NKe8OXlqI86-254" value="Constructor&lt;br&gt;1" style="rounded=0;whiteSpace=wrap;html=1;" parent="1" vertex="1">
          <mxGeometry x="1100" y="1680" width="100" height="80" as="geometry" />
        </mxCell>
        <mxCell id="VrrK6uy43NKe8OXlqI86-255" style="edgeStyle=orthogonalEdgeStyle;rounded=0;orthogonalLoop=1;jettySize=auto;html=1;" parent="1" source="VrrK6uy43NKe8OXlqI86-258" target="VrrK6uy43NKe8OXlqI86-260" edge="1">
          <mxGeometry relative="1" as="geometry" />
        </mxCell>
        <mxCell id="VrrK6uy43NKe8OXlqI86-256" style="edgeStyle=orthogonalEdgeStyle;rounded=0;orthogonalLoop=1;jettySize=auto;html=1;entryX=0;entryY=0.5;entryDx=0;entryDy=0;" parent="1" source="VrrK6uy43NKe8OXlqI86-258" target="VrrK6uy43NKe8OXlqI86-254" edge="1">
          <mxGeometry relative="1" as="geometry">
            <Array as="points">
              <mxPoint x="1060" y="1720" />
            </Array>
          </mxGeometry>
        </mxCell>
        <mxCell id="VrrK6uy43NKe8OXlqI86-257" style="edgeStyle=orthogonalEdgeStyle;rounded=0;orthogonalLoop=1;jettySize=auto;html=1;entryX=0;entryY=0.5;entryDx=0;entryDy=0;" parent="1" source="VrrK6uy43NKe8OXlqI86-258" target="VrrK6uy43NKe8OXlqI86-262" edge="1">
          <mxGeometry relative="1" as="geometry">
            <Array as="points">
              <mxPoint x="1060" y="1880" />
            </Array>
          </mxGeometry>
        </mxCell>
        <mxCell id="VrrK6uy43NKe8OXlqI86-258" value="S" style="rounded=0;whiteSpace=wrap;html=1;" parent="1" vertex="1">
          <mxGeometry x="1040" y="1780" width="40" height="40" as="geometry" />
        </mxCell>
        <mxCell id="VrrK6uy43NKe8OXlqI86-259" style="edgeStyle=orthogonalEdgeStyle;rounded=0;orthogonalLoop=1;jettySize=auto;html=1;exitX=1;exitY=0.5;exitDx=0;exitDy=0;" parent="1" source="VrrK6uy43NKe8OXlqI86-260" target="VrrK6uy43NKe8OXlqI86-263" edge="1">
          <mxGeometry relative="1" as="geometry" />
        </mxCell>
        <mxCell id="VrrK6uy43NKe8OXlqI86-260" value="Constructor&lt;br&gt;2" style="rounded=0;whiteSpace=wrap;html=1;" parent="1" vertex="1">
          <mxGeometry x="1100" y="1760" width="100" height="80" as="geometry" />
        </mxCell>
        <mxCell id="VrrK6uy43NKe8OXlqI86-261" style="edgeStyle=orthogonalEdgeStyle;rounded=0;orthogonalLoop=1;jettySize=auto;html=1;" parent="1" source="VrrK6uy43NKe8OXlqI86-262" target="VrrK6uy43NKe8OXlqI86-263" edge="1">
          <mxGeometry relative="1" as="geometry" />
        </mxCell>
        <mxCell id="VrrK6uy43NKe8OXlqI86-262" value="Constructor&lt;br&gt;3" style="rounded=0;whiteSpace=wrap;html=1;" parent="1" vertex="1">
          <mxGeometry x="1100" y="1840" width="100" height="80" as="geometry" />
        </mxCell>
        <mxCell id="VrrK6uy43NKe8OXlqI86-263" value="M" style="rounded=0;whiteSpace=wrap;html=1;" parent="1" vertex="1">
          <mxGeometry x="1221" y="1780" width="40" height="40" as="geometry" />
        </mxCell>
        <mxCell id="VrrK6uy43NKe8OXlqI86-264" style="edgeStyle=orthogonalEdgeStyle;rounded=0;orthogonalLoop=1;jettySize=auto;html=1;" parent="1" source="VrrK6uy43NKe8OXlqI86-265" target="VrrK6uy43NKe8OXlqI86-274" edge="1">
          <mxGeometry relative="1" as="geometry" />
        </mxCell>
        <mxCell id="VrrK6uy43NKe8OXlqI86-265" value="Constructor&lt;br&gt;1" style="rounded=0;whiteSpace=wrap;html=1;" parent="1" vertex="1">
          <mxGeometry x="1100" y="1120" width="100" height="80" as="geometry" />
        </mxCell>
        <mxCell id="VrrK6uy43NKe8OXlqI86-266" style="edgeStyle=orthogonalEdgeStyle;rounded=0;orthogonalLoop=1;jettySize=auto;html=1;" parent="1" source="VrrK6uy43NKe8OXlqI86-269" target="VrrK6uy43NKe8OXlqI86-271" edge="1">
          <mxGeometry relative="1" as="geometry" />
        </mxCell>
        <mxCell id="VrrK6uy43NKe8OXlqI86-267" style="edgeStyle=orthogonalEdgeStyle;rounded=0;orthogonalLoop=1;jettySize=auto;html=1;entryX=0;entryY=0.5;entryDx=0;entryDy=0;" parent="1" source="VrrK6uy43NKe8OXlqI86-269" target="VrrK6uy43NKe8OXlqI86-265" edge="1">
          <mxGeometry relative="1" as="geometry">
            <Array as="points">
              <mxPoint x="1060" y="1160" />
            </Array>
          </mxGeometry>
        </mxCell>
        <mxCell id="VrrK6uy43NKe8OXlqI86-268" style="edgeStyle=orthogonalEdgeStyle;rounded=0;orthogonalLoop=1;jettySize=auto;html=1;entryX=0;entryY=0.5;entryDx=0;entryDy=0;" parent="1" source="VrrK6uy43NKe8OXlqI86-269" target="VrrK6uy43NKe8OXlqI86-273" edge="1">
          <mxGeometry relative="1" as="geometry">
            <Array as="points">
              <mxPoint x="1060" y="1320" />
            </Array>
          </mxGeometry>
        </mxCell>
        <mxCell id="VrrK6uy43NKe8OXlqI86-269" value="S" style="rounded=0;whiteSpace=wrap;html=1;" parent="1" vertex="1">
          <mxGeometry x="1040" y="1220" width="40" height="40" as="geometry" />
        </mxCell>
        <mxCell id="VrrK6uy43NKe8OXlqI86-270" style="edgeStyle=orthogonalEdgeStyle;rounded=0;orthogonalLoop=1;jettySize=auto;html=1;exitX=1;exitY=0.5;exitDx=0;exitDy=0;" parent="1" source="VrrK6uy43NKe8OXlqI86-271" target="VrrK6uy43NKe8OXlqI86-274" edge="1">
          <mxGeometry relative="1" as="geometry" />
        </mxCell>
        <mxCell id="VrrK6uy43NKe8OXlqI86-271" value="Constructor&lt;br&gt;2" style="rounded=0;whiteSpace=wrap;html=1;" parent="1" vertex="1">
          <mxGeometry x="1100" y="1200" width="100" height="80" as="geometry" />
        </mxCell>
        <mxCell id="VrrK6uy43NKe8OXlqI86-272" style="edgeStyle=orthogonalEdgeStyle;rounded=0;orthogonalLoop=1;jettySize=auto;html=1;" parent="1" source="VrrK6uy43NKe8OXlqI86-273" target="VrrK6uy43NKe8OXlqI86-274" edge="1">
          <mxGeometry relative="1" as="geometry" />
        </mxCell>
        <mxCell id="VrrK6uy43NKe8OXlqI86-273" value="Constructor&lt;br&gt;3" style="rounded=0;whiteSpace=wrap;html=1;" parent="1" vertex="1">
          <mxGeometry x="1100" y="1280" width="100" height="80" as="geometry" />
        </mxCell>
        <mxCell id="VrrK6uy43NKe8OXlqI86-295" style="edgeStyle=orthogonalEdgeStyle;rounded=0;orthogonalLoop=1;jettySize=auto;html=1;" parent="1" source="VrrK6uy43NKe8OXlqI86-274" target="VrrK6uy43NKe8OXlqI86-294" edge="1">
          <mxGeometry relative="1" as="geometry">
            <Array as="points">
              <mxPoint x="1281" y="1240" />
            </Array>
          </mxGeometry>
        </mxCell>
        <mxCell id="VrrK6uy43NKe8OXlqI86-274" value="M" style="rounded=0;whiteSpace=wrap;html=1;" parent="1" vertex="1">
          <mxGeometry x="1221" y="1220" width="40" height="40" as="geometry" />
        </mxCell>
        <mxCell id="VrrK6uy43NKe8OXlqI86-301" style="edgeStyle=orthogonalEdgeStyle;rounded=0;orthogonalLoop=1;jettySize=auto;html=1;entryX=0.5;entryY=0;entryDx=0;entryDy=0;" parent="1" source="VrrK6uy43NKe8OXlqI86-287" target="VrrK6uy43NKe8OXlqI86-298" edge="1">
          <mxGeometry relative="1" as="geometry" />
        </mxCell>
        <mxCell id="VrrK6uy43NKe8OXlqI86-287" value="M" style="rounded=0;whiteSpace=wrap;html=1;" parent="1" vertex="1">
          <mxGeometry x="1261" y="940" width="40" height="40" as="geometry" />
        </mxCell>
        <mxCell id="VrrK6uy43NKe8OXlqI86-300" style="edgeStyle=orthogonalEdgeStyle;rounded=0;orthogonalLoop=1;jettySize=auto;html=1;entryX=0.5;entryY=0;entryDx=0;entryDy=0;" parent="1" source="VrrK6uy43NKe8OXlqI86-294" target="VrrK6uy43NKe8OXlqI86-299" edge="1">
          <mxGeometry relative="1" as="geometry">
            <Array as="points">
              <mxPoint x="1321" y="1520" />
            </Array>
          </mxGeometry>
        </mxCell>
        <mxCell id="VrrK6uy43NKe8OXlqI86-294" value="M" style="rounded=0;whiteSpace=wrap;html=1;" parent="1" vertex="1">
          <mxGeometry x="1261" y="1500" width="40" height="40" as="geometry" />
        </mxCell>
        <mxCell id="VrrK6uy43NKe8OXlqI86-298" value="S2" style="rounded=0;whiteSpace=wrap;html=1;" parent="1" vertex="1">
          <mxGeometry x="1341" y="1960" width="40" height="40" as="geometry" />
        </mxCell>
        <mxCell id="VrrK6uy43NKe8OXlqI86-299" value="S1" style="rounded=0;whiteSpace=wrap;html=1;" parent="1" vertex="1">
          <mxGeometry x="1301" y="1960" width="40" height="40" as="geometry" />
        </mxCell>
        <mxCell id="VrrK6uy43NKe8OXlqI86-351" value="" style="group;rotation=-90;verticalAlign=middle;" parent="1" vertex="1" connectable="0">
          <mxGeometry x="840" y="1920" width="200" height="280" as="geometry" />
        </mxCell>
        <mxCell id="VrrK6uy43NKe8OXlqI86-350" value="2to5 balancer" style="rounded=0;whiteSpace=wrap;html=1;rotation=-90;verticalAlign=bottom;align=left;" parent="VrrK6uy43NKe8OXlqI86-351" vertex="1">
          <mxGeometry width="200" height="280" as="geometry" />
        </mxCell>
        <mxCell id="VrrK6uy43NKe8OXlqI86-326" value="M" style="rounded=0;whiteSpace=wrap;html=1;fillColor=#f5f5f5;fontColor=#333333;strokeColor=#666666;rotation=-90;" parent="VrrK6uy43NKe8OXlqI86-351" vertex="1">
          <mxGeometry x="80" y="160" width="40" height="40" as="geometry" />
        </mxCell>
        <mxCell id="VrrK6uy43NKe8OXlqI86-327" value="S" style="rounded=0;whiteSpace=wrap;html=1;fillColor=#f5f5f5;fontColor=#333333;strokeColor=#666666;rotation=-90;" parent="VrrK6uy43NKe8OXlqI86-351" vertex="1">
          <mxGeometry x="80" y="120" width="40" height="40" as="geometry" />
        </mxCell>
        <mxCell id="VrrK6uy43NKe8OXlqI86-347" style="edgeStyle=orthogonalEdgeStyle;rounded=0;orthogonalLoop=1;jettySize=auto;html=1;" parent="VrrK6uy43NKe8OXlqI86-351" source="VrrK6uy43NKe8OXlqI86-330" target="VrrK6uy43NKe8OXlqI86-326" edge="1">
          <mxGeometry relative="1" as="geometry">
            <Array as="points">
              <mxPoint x="220" y="100" />
              <mxPoint x="220" y="180" />
            </Array>
          </mxGeometry>
        </mxCell>
        <mxCell id="VrrK6uy43NKe8OXlqI86-330" value="S" style="rounded=0;whiteSpace=wrap;html=1;fillColor=#f5f5f5;fontColor=#333333;strokeColor=#666666;rotation=-90;" parent="VrrK6uy43NKe8OXlqI86-351" vertex="1">
          <mxGeometry x="160" y="80" width="40" height="40" as="geometry" />
        </mxCell>
        <mxCell id="VrrK6uy43NKe8OXlqI86-331" style="edgeStyle=orthogonalEdgeStyle;rounded=0;orthogonalLoop=1;jettySize=auto;html=1;entryX=0;entryY=0.5;entryDx=0;entryDy=0;" parent="VrrK6uy43NKe8OXlqI86-351" source="VrrK6uy43NKe8OXlqI86-327" target="VrrK6uy43NKe8OXlqI86-330" edge="1">
          <mxGeometry relative="1" as="geometry">
            <Array as="points">
              <mxPoint x="180" y="140" />
            </Array>
          </mxGeometry>
        </mxCell>
        <mxCell id="VrrK6uy43NKe8OXlqI86-332" value="S" style="rounded=0;whiteSpace=wrap;html=1;fillColor=#f5f5f5;fontColor=#333333;strokeColor=#666666;rotation=-90;" parent="VrrK6uy43NKe8OXlqI86-351" vertex="1">
          <mxGeometry y="80" width="40" height="40" as="geometry" />
        </mxCell>
        <mxCell id="VrrK6uy43NKe8OXlqI86-333" style="edgeStyle=orthogonalEdgeStyle;rounded=0;orthogonalLoop=1;jettySize=auto;html=1;" parent="VrrK6uy43NKe8OXlqI86-351" source="VrrK6uy43NKe8OXlqI86-327" target="VrrK6uy43NKe8OXlqI86-332" edge="1">
          <mxGeometry relative="1" as="geometry">
            <Array as="points">
              <mxPoint x="20" y="140" />
            </Array>
          </mxGeometry>
        </mxCell>
        <mxCell id="VrrK6uy43NKe8OXlqI86-336" value="O2" style="rounded=0;whiteSpace=wrap;html=1;fontStyle=0;rotation=-90;" parent="VrrK6uy43NKe8OXlqI86-351" vertex="1">
          <mxGeometry y="40" width="40" height="40" as="geometry" />
        </mxCell>
        <mxCell id="VrrK6uy43NKe8OXlqI86-338" value="O3" style="rounded=0;whiteSpace=wrap;html=1;fontStyle=0;rotation=-90;" parent="VrrK6uy43NKe8OXlqI86-351" vertex="1">
          <mxGeometry x="40" y="40" width="40" height="40" as="geometry" />
        </mxCell>
        <mxCell id="VrrK6uy43NKe8OXlqI86-340" value="O4" style="rounded=0;whiteSpace=wrap;html=1;fontStyle=0;rotation=-90;" parent="VrrK6uy43NKe8OXlqI86-351" vertex="1">
          <mxGeometry x="120" y="40" width="40" height="40" as="geometry" />
        </mxCell>
        <mxCell id="VrrK6uy43NKe8OXlqI86-342" value="O5" style="rounded=0;whiteSpace=wrap;html=1;fontStyle=0;rotation=-90;" parent="VrrK6uy43NKe8OXlqI86-351" vertex="1">
          <mxGeometry x="160" y="40" width="40" height="40" as="geometry" />
        </mxCell>
        <mxCell id="VrrK6uy43NKe8OXlqI86-348" value="O6" style="rounded=0;whiteSpace=wrap;html=1;fontStyle=0;rotation=-90;" parent="VrrK6uy43NKe8OXlqI86-351" vertex="1">
          <mxGeometry x="200" y="40" width="40" height="40" as="geometry" />
        </mxCell>
        <mxCell id="VrrK6uy43NKe8OXlqI86-349" value="I1" style="rounded=0;whiteSpace=wrap;html=1;fontStyle=0;rotation=-90;" parent="VrrK6uy43NKe8OXlqI86-351" vertex="1">
          <mxGeometry x="80" y="200" width="40" height="40" as="geometry" />
        </mxCell>
        <mxCell id="VrrK6uy43NKe8OXlqI86-334" value="O1" style="rounded=0;whiteSpace=wrap;html=1;fontStyle=0;rotation=-90;" parent="VrrK6uy43NKe8OXlqI86-351" vertex="1">
          <mxGeometry x="-40" y="40" width="40" height="40" as="geometry" />
        </mxCell>
        <mxCell id="IXcQTllMr5og1gS8YRvR-2" style="edgeStyle=orthogonalEdgeStyle;rounded=0;orthogonalLoop=1;jettySize=auto;html=1;" parent="1" source="9aJZLA5xIKLmTn4AJxXM-1" target="IXcQTllMr5og1gS8YRvR-1" edge="1">
          <mxGeometry relative="1" as="geometry" />
        </mxCell>
        <mxCell id="9aJZLA5xIKLmTn4AJxXM-1" value="Container&lt;br&gt;CT-M1-RGHT" style="rounded=0;whiteSpace=wrap;html=1;" parent="1" vertex="1">
          <mxGeometry x="700" y="2000" width="100" height="50" as="geometry" />
        </mxCell>
        <mxCell id="IXcQTllMr5og1gS8YRvR-4" style="edgeStyle=orthogonalEdgeStyle;rounded=0;orthogonalLoop=1;jettySize=auto;html=1;" parent="1" source="9aJZLA5xIKLmTn4AJxXM-3" target="IXcQTllMr5og1gS8YRvR-1" edge="1">
          <mxGeometry relative="1" as="geometry" />
        </mxCell>
        <mxCell id="9aJZLA5xIKLmTn4AJxXM-3" value="Container&lt;br style=&quot;border-color: var(--border-color);&quot;&gt;CT-M1-LEFT" style="rounded=0;whiteSpace=wrap;html=1;" parent="1" vertex="1">
          <mxGeometry x="700" y="2100" width="100" height="50" as="geometry" />
        </mxCell>
        <mxCell id="IXcQTllMr5og1gS8YRvR-3" style="edgeStyle=orthogonalEdgeStyle;rounded=0;orthogonalLoop=1;jettySize=auto;html=1;" parent="1" source="9aJZLA5xIKLmTn4AJxXM-4" target="IXcQTllMr5og1gS8YRvR-1" edge="1">
          <mxGeometry relative="1" as="geometry" />
        </mxCell>
        <mxCell id="9aJZLA5xIKLmTn4AJxXM-4" value="Container&lt;br&gt;CT-M1-CNTR" style="rounded=0;whiteSpace=wrap;html=1;" parent="1" vertex="1">
          <mxGeometry x="700" y="2050" width="100" height="50" as="geometry" />
        </mxCell>
        <mxCell id="9aJZLA5xIKLmTn4AJxXM-13" style="edgeStyle=orthogonalEdgeStyle;rounded=0;orthogonalLoop=1;jettySize=auto;html=1;" parent="1" source="9aJZLA5xIKLmTn4AJxXM-5" target="9aJZLA5xIKLmTn4AJxXM-1" edge="1">
          <mxGeometry relative="1" as="geometry" />
        </mxCell>
        <mxCell id="9aJZLA5xIKLmTn4AJxXM-5" value="CopperIngot 800" style="rounded=0;whiteSpace=wrap;html=1;" parent="1" vertex="1">
          <mxGeometry x="520" y="2000" width="100" height="50" as="geometry" />
        </mxCell>
        <mxCell id="9aJZLA5xIKLmTn4AJxXM-14" style="edgeStyle=orthogonalEdgeStyle;rounded=0;orthogonalLoop=1;jettySize=auto;html=1;" parent="1" source="9aJZLA5xIKLmTn4AJxXM-7" target="9aJZLA5xIKLmTn4AJxXM-4" edge="1">
          <mxGeometry relative="1" as="geometry" />
        </mxCell>
        <mxCell id="9aJZLA5xIKLmTn4AJxXM-7" value="SteelIngot 900" style="rounded=0;whiteSpace=wrap;html=1;" parent="1" vertex="1">
          <mxGeometry x="520" y="2050" width="100" height="50" as="geometry" />
        </mxCell>
        <mxCell id="9aJZLA5xIKLmTn4AJxXM-15" style="edgeStyle=orthogonalEdgeStyle;rounded=0;orthogonalLoop=1;jettySize=auto;html=1;" parent="1" source="9aJZLA5xIKLmTn4AJxXM-8" target="9aJZLA5xIKLmTn4AJxXM-3" edge="1">
          <mxGeometry relative="1" as="geometry" />
        </mxCell>
        <mxCell id="9aJZLA5xIKLmTn4AJxXM-8" value="IronIngot 2250" style="rounded=0;whiteSpace=wrap;html=1;" parent="1" vertex="1">
          <mxGeometry x="520" y="2100" width="100" height="50" as="geometry" />
        </mxCell>
        <mxCell id="IXcQTllMr5og1gS8YRvR-6" style="edgeStyle=orthogonalEdgeStyle;rounded=0;orthogonalLoop=1;jettySize=auto;html=1;" parent="1" source="9aJZLA5xIKLmTn4AJxXM-10" target="IXcQTllMr5og1gS8YRvR-5" edge="1">
          <mxGeometry relative="1" as="geometry" />
        </mxCell>
        <mxCell id="9aJZLA5xIKLmTn4AJxXM-10" value="Container&lt;br style=&quot;border-color: var(--border-color);&quot;&gt;CT-M2-RGHT" style="rounded=0;whiteSpace=wrap;html=1;" parent="1" vertex="1">
          <mxGeometry x="700" y="2150" width="100" height="50" as="geometry" />
        </mxCell>
        <mxCell id="IXcQTllMr5og1gS8YRvR-7" style="edgeStyle=orthogonalEdgeStyle;rounded=0;orthogonalLoop=1;jettySize=auto;html=1;" parent="1" source="9aJZLA5xIKLmTn4AJxXM-11" target="IXcQTllMr5og1gS8YRvR-5" edge="1">
          <mxGeometry relative="1" as="geometry" />
        </mxCell>
        <mxCell id="9aJZLA5xIKLmTn4AJxXM-11" value="Container&lt;br&gt;CT-M2-CNTR" style="rounded=0;whiteSpace=wrap;html=1;" parent="1" vertex="1">
          <mxGeometry x="700" y="2200" width="100" height="50" as="geometry" />
        </mxCell>
        <mxCell id="IXcQTllMr5og1gS8YRvR-8" style="edgeStyle=orthogonalEdgeStyle;rounded=0;orthogonalLoop=1;jettySize=auto;html=1;" parent="1" source="9aJZLA5xIKLmTn4AJxXM-12" target="IXcQTllMr5og1gS8YRvR-5" edge="1">
          <mxGeometry relative="1" as="geometry" />
        </mxCell>
        <mxCell id="9aJZLA5xIKLmTn4AJxXM-12" value="Container&lt;br&gt;CT-M2-LEFT" style="rounded=0;whiteSpace=wrap;html=1;" parent="1" vertex="1">
          <mxGeometry x="700" y="2250" width="100" height="50" as="geometry" />
        </mxCell>
        <mxCell id="IXcQTllMr5og1gS8YRvR-16" style="edgeStyle=orthogonalEdgeStyle;rounded=0;orthogonalLoop=1;jettySize=auto;html=1;" parent="1" source="IXcQTllMr5og1gS8YRvR-1" target="IXcQTllMr5og1gS8YRvR-9" edge="1">
          <mxGeometry relative="1" as="geometry" />
        </mxCell>
        <mxCell id="IXcQTllMr5og1gS8YRvR-1" value="M1" style="rounded=0;whiteSpace=wrap;html=1;" parent="1" vertex="1">
          <mxGeometry x="810" y="2055" width="40" height="40" as="geometry" />
        </mxCell>
        <mxCell id="IXcQTllMr5og1gS8YRvR-15" style="edgeStyle=orthogonalEdgeStyle;rounded=0;orthogonalLoop=1;jettySize=auto;html=1;entryX=0;entryY=0.5;entryDx=0;entryDy=0;" parent="1" source="IXcQTllMr5og1gS8YRvR-5" target="IXcQTllMr5og1gS8YRvR-9" edge="1">
          <mxGeometry relative="1" as="geometry" />
        </mxCell>
        <mxCell id="IXcQTllMr5og1gS8YRvR-5" value="M2" style="rounded=0;whiteSpace=wrap;html=1;" parent="1" vertex="1">
          <mxGeometry x="810" y="2205" width="40" height="40" as="geometry" />
        </mxCell>
        <mxCell id="IXcQTllMr5og1gS8YRvR-9" value="M3" style="rounded=0;whiteSpace=wrap;html=1;" parent="1" vertex="1">
          <mxGeometry x="860" y="2205" width="40" height="40" as="geometry" />
        </mxCell>
        <mxCell id="VrrK6uy43NKe8OXlqI86-361" style="edgeStyle=orthogonalEdgeStyle;rounded=0;orthogonalLoop=1;jettySize=auto;html=1;entryX=0;entryY=0.5;entryDx=0;entryDy=0;" parent="1" source="VrrK6uy43NKe8OXlqI86-342" target="VrrK6uy43NKe8OXlqI86-258" edge="1">
          <mxGeometry relative="1" as="geometry" />
        </mxCell>
        <mxCell id="VrrK6uy43NKe8OXlqI86-363" style="edgeStyle=orthogonalEdgeStyle;rounded=0;orthogonalLoop=1;jettySize=auto;html=1;exitX=1;exitY=0.5;exitDx=0;exitDy=0;entryX=0;entryY=0.5;entryDx=0;entryDy=0;" parent="1" source="VrrK6uy43NKe8OXlqI86-340" target="VrrK6uy43NKe8OXlqI86-236" edge="1">
          <mxGeometry relative="1" as="geometry" />
        </mxCell>
        <mxCell id="VrrK6uy43NKe8OXlqI86-364" style="edgeStyle=orthogonalEdgeStyle;rounded=0;orthogonalLoop=1;jettySize=auto;html=1;exitX=1;exitY=0.5;exitDx=0;exitDy=0;entryX=0;entryY=0.5;entryDx=0;entryDy=0;" parent="1" source="VrrK6uy43NKe8OXlqI86-338" target="VrrK6uy43NKe8OXlqI86-269" edge="1">
          <mxGeometry relative="1" as="geometry" />
        </mxCell>
        <mxCell id="VrrK6uy43NKe8OXlqI86-365" style="edgeStyle=orthogonalEdgeStyle;rounded=0;orthogonalLoop=1;jettySize=auto;html=1;entryX=0;entryY=0.5;entryDx=0;entryDy=0;" parent="1" source="VrrK6uy43NKe8OXlqI86-336" target="VrrK6uy43NKe8OXlqI86-247" edge="1">
          <mxGeometry relative="1" as="geometry">
            <Array as="points">
              <mxPoint x="870" y="960" />
            </Array>
          </mxGeometry>
        </mxCell>
        <mxCell id="VrrK6uy43NKe8OXlqI86-366" style="edgeStyle=orthogonalEdgeStyle;rounded=0;orthogonalLoop=1;jettySize=auto;html=1;entryX=0;entryY=0.5;entryDx=0;entryDy=0;" parent="1" source="VrrK6uy43NKe8OXlqI86-334" target="VrrK6uy43NKe8OXlqI86-4" edge="1">
          <mxGeometry relative="1" as="geometry">
            <Array as="points">
              <mxPoint x="820" y="680" />
            </Array>
          </mxGeometry>
        </mxCell>
      </root>
    </mxGraphModel>
  </diagram>
</mxfile>
